<svg id="visual" viewBox="0 0 960 540" width="960" height="540" xmlns="http://www.w3.org/2000/svg" xmlns:xlink="http://www.w3.org/1999/xlink" version="1.1"><path d="M0 136L14.5 138.7C29 141.3 58 146.7 87.2 148.5C116.3 150.3 145.7 148.7 174.8 148.7C204 148.7 233 150.3 262 144C291 137.7 320 123.3 349 120.7C378 118 407 127 436.2 127C465.3 127 494.7 118 523.8 116.2C553 114.3 582 119.7 611 118.8C640 118 669 111 698 103C727 95 756 86 785.2 83.2C814.3 80.3 843.7 83.7 872.8 95.3C902 107 931 127 945.5 137L960 147L960 0L945.5 0C931 0 902 0 872.8 0C843.7 0 814.3 0 785.2 0C756 0 727 0 698 0C669 0 640 0 611 0C582 0 553 0 523.8 0C494.7 0 465.3 0 436.2 0C407 0 378 0 349 0C320 0 291 0 262 0C233 0 204 0 174.8 0C145.7 0 116.3 0 87.2 0C58 0 29 0 14.5 0L0 0Z" fill="#ffffff"></path><path d="M0 260L14.5 262.7C29 265.3 58 270.7 87.2 267.2C116.3 263.7 145.7 251.3 174.8 242.3C204 233.3 233 227.7 262 227.7C291 227.7 320 233.3 349 238.8C378 244.3 407 249.7 436.2 252.3C465.3 255 494.7 255 523.8 246C553 237 582 219 611 220.8C640 222.7 669 244.3 698 243.3C727 242.3 756 218.7 785.2 220.3C814.3 222 843.7 249 872.8 252.7C902 256.3 931 236.7 945.5 226.8L960 217L960 145L945.5 135C931 125 902 105 872.8 93.3C843.7 81.7 814.3 78.3 785.2 81.2C756 84 727 93 698 101C669 109 640 116 611 116.8C582 117.7 553 112.3 523.8 114.2C494.7 116 465.3 125 436.2 125C407 125 378 116 349 118.7C320 121.3 291 135.7 262 142C233 148.3 204 146.7 174.8 146.7C145.7 146.7 116.3 148.3 87.2 146.5C58 144.7 29 139.3 14.5 136.7L0 134Z" fill="#e8f7f2"></path><path d="M0 293L14.5 298.3C29 303.7 58 314.3 87.2 317.8C116.3 321.3 145.7 317.7 174.8 312.3C204 307 233 300 262 296.5C291 293 320 293 349 298.3C378 303.7 407 314.3 436.2 317C465.3 319.7 494.7 314.3 523.8 305.3C553 296.3 582 283.7 611 281C640 278.3 669 285.7 698 282C727 278.3 756 263.7 785.2 267.2C814.3 270.7 843.7 292.3 872.8 299.7C902 307 931 300 945.5 296.5L960 293L960 215L945.5 224.8C931 234.7 902 254.3 872.8 250.7C843.7 247 814.3 220 785.2 218.3C756 216.7 727 240.3 698 241.3C669 242.3 640 220.7 611 218.8C582 217 553 235 523.8 244C494.7 253 465.3 253 436.2 250.3C407 247.7 378 242.3 349 236.8C320 231.3 291 225.7 262 225.7C233 225.7 204 231.3 174.8 240.3C145.7 249.3 116.3 261.7 87.2 265.2C58 268.7 29 263.3 14.5 260.7L0 258Z" fill="#d2efe4"></path><path d="M0 330L14.5 333.7C29 337.3 58 344.7 87.2 352.8C116.3 361 145.7 370 174.8 368.2C204 366.3 233 353.7 262 343.8C291 334 320 327 349 330.7C378 334.3 407 348.7 436.2 352.2C465.3 355.7 494.7 348.3 523.8 339.3C553 330.3 582 319.7 611 315.2C640 310.7 669 312.3 698 312.3C727 312.3 756 310.7 785.2 317.8C814.3 325 843.7 341 872.8 349C902 357 931 357 945.5 357L960 357L960 291L945.5 294.5C931 298 902 305 872.8 297.7C843.7 290.3 814.3 268.7 785.2 265.2C756 261.7 727 276.3 698 280C669 283.7 640 276.3 611 279C582 281.7 553 294.3 523.8 303.3C494.7 312.3 465.3 317.7 436.2 315C407 312.3 378 301.7 349 296.3C320 291 291 291 262 294.5C233 298 204 305 174.8 310.3C145.7 315.7 116.3 319.3 87.2 315.8C58 312.3 29 301.7 14.5 296.3L0 291Z" fill="#bbe7d7"></path><path d="M0 363L14.5 364.8C29 366.7 58 370.3 87.2 376.7C116.3 383 145.7 392 174.8 392C204 392 233 383 262 372.2C291 361.3 320 348.7 349 353.2C378 357.7 407 379.3 436.2 385.7C465.3 392 494.7 383 523.8 374C553 365 582 356 611 349.7C640 343.3 669 339.7 698 339.7C727 339.7 756 343.3 785.2 353.2C814.3 363 843.7 379 872.8 385.2C902 391.3 931 387.7 945.5 385.8L960 384L960 355L945.5 355C931 355 902 355 872.8 347C843.7 339 814.3 323 785.2 315.8C756 308.7 727 310.3 698 310.3C669 310.3 640 308.7 611 313.2C582 317.7 553 328.3 523.8 337.3C494.7 346.3 465.3 353.7 436.2 350.2C407 346.7 378 332.3 349 328.7C320 325 291 332 262 341.8C233 351.7 204 364.3 174.8 366.2C145.7 368 116.3 359 87.2 350.8C58 342.7 29 335.3 14.5 331.7L0 328Z" fill="#a3dfca"></path><path d="M0 390L14.5 392.7C29 395.3 58 400.7 87.2 409.7C116.3 418.7 145.7 431.3 174.8 429.5C204 427.7 233 411.3 262 397.8C291 384.3 320 373.7 349 378.2C378 382.7 407 402.3 436.2 412.2C465.3 422 494.7 422 523.8 414.8C553 407.7 582 393.3 611 382.5C640 371.7 669 364.3 698 365.2C727 366 756 375 785.2 386.8C814.3 398.7 843.7 413.3 872.8 421.5C902 429.7 931 431.3 945.5 432.2L960 433L960 382L945.5 383.8C931 385.7 902 389.3 872.8 383.2C843.7 377 814.3 361 785.2 351.2C756 341.3 727 337.7 698 337.7C669 337.7 640 341.3 611 347.7C582 354 553 363 523.8 372C494.7 381 465.3 390 436.2 383.7C407 377.3 378 355.7 349 351.2C320 346.7 291 359.3 262 370.2C233 381 204 390 174.8 390C145.7 390 116.3 381 87.2 374.7C58 368.3 29 364.7 14.5 362.8L0 361Z" fill="#8ad7bd"></path><path d="M0 428L14.5 429.7C29 431.3 58 434.7 87.2 441.8C116.3 449 145.7 460 174.8 458.3C204 456.7 233 442.3 262 432.3C291 422.3 320 416.7 349 425.7C378 434.7 407 458.3 436.2 465.7C465.3 473 494.7 464 523.8 454C553 444 582 433 611 424.8C640 416.7 669 411.3 698 408.7C727 406 756 406 785.2 414.2C814.3 422.3 843.7 438.7 872.8 445.8C902 453 931 451 945.5 450L960 449L960 431L945.5 430.2C931 429.3 902 427.7 872.8 419.5C843.7 411.3 814.3 396.7 785.2 384.8C756 373 727 364 698 363.2C669 362.3 640 369.7 611 380.5C582 391.3 553 405.7 523.8 412.8C494.7 420 465.3 420 436.2 410.2C407 400.3 378 380.7 349 376.2C320 371.7 291 382.3 262 395.8C233 409.3 204 425.7 174.8 427.5C145.7 429.3 116.3 416.7 87.2 407.7C58 398.7 29 393.3 14.5 390.7L0 388Z" fill="#70ceb1"></path><path d="M0 476L14.5 477C29 478 58 480 87.2 482.7C116.3 485.3 145.7 488.7 174.8 486.8C204 485 233 478 262 469C291 460 320 449 349 455.3C378 461.7 407 485.3 436.2 495.3C465.3 505.3 494.7 501.7 523.8 489.8C553 478 582 458 611 449.8C640 441.7 669 445.3 698 447.2C727 449 756 449 785.2 457.2C814.3 465.3 843.7 481.7 872.8 488C902 494.3 931 490.7 945.5 488.8L960 487L960 447L945.5 448C931 449 902 451 872.8 443.8C843.7 436.7 814.3 420.3 785.2 412.2C756 404 727 404 698 406.7C669 409.3 640 414.7 611 422.8C582 431 553 442 523.8 452C494.7 462 465.3 471 436.2 463.7C407 456.3 378 432.7 349 423.7C320 414.7 291 420.3 262 430.3C233 440.3 204 454.7 174.8 456.3C145.7 458 116.3 447 87.2 439.8C58 432.7 29 429.3 14.5 427.7L0 426Z" fill="#51c6a4"></path><path d="M0 541L14.5 541C29 541 58 541 87.2 541C116.3 541 145.7 541 174.8 541C204 541 233 541 262 541C291 541 320 541 349 541C378 541 407 541 436.2 541C465.3 541 494.7 541 523.8 541C553 541 582 541 611 541C640 541 669 541 698 541C727 541 756 541 785.2 541C814.3 541 843.7 541 872.8 541C902 541 931 541 945.5 541L960 541L960 485L945.5 486.8C931 488.7 902 492.3 872.8 486C843.7 479.7 814.3 463.3 785.2 455.2C756 447 727 447 698 445.2C669 443.3 640 439.7 611 447.8C582 456 553 476 523.8 487.8C494.7 499.7 465.3 503.3 436.2 493.3C407 483.3 378 459.7 349 453.3C320 447 291 458 262 467C233 476 204 483 174.8 484.8C145.7 486.7 116.3 483.3 87.2 480.7C58 478 29 476 14.5 475L0 474Z" fill="#25bd98"></path></svg>