<svg id="visual" viewBox="0 0 960 540" width="960" height="540" xmlns="http://www.w3.org/2000/svg" xmlns:xlink="http://www.w3.org/1999/xlink" version="1.1"><path d="M0 71L12.3 70.2C24.7 69.3 49.3 67.7 74 65C98.7 62.3 123.3 58.7 148 69.5C172.7 80.3 197.3 105.7 221.8 122.8C246.3 140 270.7 149 295.2 135.5C319.7 122 344.3 86 369 68.8C393.7 51.7 418.3 53.3 443 58.7C467.7 64 492.3 73 517 84.7C541.7 96.3 566.3 110.7 591 114.3C615.7 118 640.3 111 664.8 109.2C689.3 107.3 713.7 110.7 738.2 108.8C762.7 107 787.3 100 812 101C836.7 102 861.3 111 886 116.3C910.7 121.7 935.3 123.3 947.7 124.2L960 125L960 0L947.7 0C935.3 0 910.7 0 886 0C861.3 0 836.7 0 812 0C787.3 0 762.7 0 738.2 0C713.7 0 689.3 0 664.8 0C640.3 0 615.7 0 591 0C566.3 0 541.7 0 517 0C492.3 0 467.7 0 443 0C418.3 0 393.7 0 369 0C344.3 0 319.7 0 295.2 0C270.7 0 246.3 0 221.8 0C197.3 0 172.7 0 148 0C123.3 0 98.7 0 74 0C49.3 0 24.7 0 12.3 0L0 0Z" fill="#6950ba"></path><path d="M0 98L12.3 99C24.7 100 49.3 102 74 100.2C98.7 98.3 123.3 92.7 148 103.3C172.7 114 197.3 141 221.8 154.5C246.3 168 270.7 168 295.2 151C319.7 134 344.3 100 369 83C393.7 66 418.3 66 443 71.3C467.7 76.7 492.3 87.3 517 99.8C541.7 112.3 566.3 126.7 591 133.8C615.7 141 640.3 141 664.8 142.8C689.3 144.7 713.7 148.3 738.2 145.7C762.7 143 787.3 134 812 130.5C836.7 127 861.3 129 886 132.7C910.7 136.3 935.3 141.7 947.7 144.3L960 147L960 123L947.7 122.2C935.3 121.3 910.7 119.7 886 114.3C861.3 109 836.7 100 812 99C787.3 98 762.7 105 738.2 106.8C713.7 108.7 689.3 105.3 664.8 107.2C640.3 109 615.7 116 591 112.3C566.3 108.7 541.7 94.3 517 82.7C492.3 71 467.7 62 443 56.7C418.3 51.3 393.7 49.7 369 66.8C344.3 84 319.7 120 295.2 133.5C270.7 147 246.3 138 221.8 120.8C197.3 103.7 172.7 78.3 148 67.5C123.3 56.7 98.7 60.3 74 63C49.3 65.7 24.7 67.3 12.3 68.2L0 69Z" fill="#6048ad"></path><path d="M0 125L12.3 125C24.7 125 49.3 125 74 124.2C98.7 123.3 123.3 121.7 148 135.2C172.7 148.7 197.3 177.3 221.8 188.2C246.3 199 270.7 192 295.2 173.2C319.7 154.3 344.3 123.7 369 106.5C393.7 89.3 418.3 85.7 443 92C467.7 98.3 492.3 114.7 517 127.3C541.7 140 566.3 149 591 157C615.7 165 640.3 172 664.8 174.7C689.3 177.3 713.7 175.7 738.2 171.2C762.7 166.7 787.3 159.3 812 156.7C836.7 154 861.3 156 886 161.5C910.7 167 935.3 176 947.7 180.5L960 185L960 145L947.7 142.3C935.3 139.7 910.7 134.3 886 130.7C861.3 127 836.7 125 812 128.5C787.3 132 762.7 141 738.2 143.7C713.7 146.3 689.3 142.7 664.8 140.8C640.3 139 615.7 139 591 131.8C566.3 124.7 541.7 110.3 517 97.8C492.3 85.3 467.7 74.7 443 69.3C418.3 64 393.7 64 369 81C344.3 98 319.7 132 295.2 149C270.7 166 246.3 166 221.8 152.5C197.3 139 172.7 112 148 101.3C123.3 90.7 98.7 96.3 74 98.2C49.3 100 24.7 98 12.3 97L0 96Z" fill="#5740a0"></path><path d="M0 195L12.3 202.3C24.7 209.7 49.3 224.3 74 219C98.7 213.7 123.3 188.3 148 194.5C172.7 200.7 197.3 238.3 221.8 250C246.3 261.7 270.7 247.3 295.2 231.2C319.7 215 344.3 197 369 178.2C393.7 159.3 418.3 139.7 443 140.7C467.7 141.7 492.3 163.3 517 182.2C541.7 201 566.3 217 591 224.2C615.7 231.3 640.3 229.7 664.8 232.3C689.3 235 713.7 242 738.2 239.3C762.7 236.7 787.3 224.3 812 223.5C836.7 222.7 861.3 233.3 886 236.8C910.7 240.3 935.3 236.7 947.7 234.8L960 233L960 183L947.7 178.5C935.3 174 910.7 165 886 159.5C861.3 154 836.7 152 812 154.7C787.3 157.3 762.7 164.7 738.2 169.2C713.7 173.7 689.3 175.3 664.8 172.7C640.3 170 615.7 163 591 155C566.3 147 541.7 138 517 125.3C492.3 112.7 467.7 96.3 443 90C418.3 83.7 393.7 87.3 369 104.5C344.3 121.7 319.7 152.3 295.2 171.2C270.7 190 246.3 197 221.8 186.2C197.3 175.3 172.7 146.7 148 133.2C123.3 119.7 98.7 121.3 74 122.2C49.3 123 24.7 123 12.3 123L0 123Z" fill="#4e3893"></path><path d="M0 325L12.3 334C24.7 343 49.3 361 74 358.3C98.7 355.7 123.3 332.3 148 330.5C172.7 328.7 197.3 348.3 221.8 347.3C246.3 346.3 270.7 324.7 295.2 313.8C319.7 303 344.3 303 369 300.3C393.7 297.7 418.3 292.3 443 294.2C467.7 296 492.3 305 517 320.3C541.7 335.7 566.3 357.3 591 362.8C615.7 368.3 640.3 357.7 664.8 348.7C689.3 339.7 713.7 332.3 738.2 328.7C762.7 325 787.3 325 812 327.7C836.7 330.3 861.3 335.7 886 333.8C910.7 332 935.3 323 947.7 318.5L960 314L960 231L947.7 232.8C935.3 234.7 910.7 238.3 886 234.8C861.3 231.3 836.7 220.7 812 221.5C787.3 222.3 762.7 234.7 738.2 237.3C713.7 240 689.3 233 664.8 230.3C640.3 227.7 615.7 229.3 591 222.2C566.3 215 541.7 199 517 180.2C492.3 161.3 467.7 139.7 443 138.7C418.3 137.7 393.7 157.3 369 176.2C344.3 195 319.7 213 295.2 229.2C270.7 245.3 246.3 259.7 221.8 248C197.3 236.3 172.7 198.7 148 192.5C123.3 186.3 98.7 211.7 74 217C49.3 222.3 24.7 207.7 12.3 200.3L0 193Z" fill="#453086"></path><path d="M0 357L12.3 367C24.7 377 49.3 397 74 397C98.7 397 123.3 377 148 376C172.7 375 197.3 393 221.8 392.2C246.3 391.3 270.7 371.7 295.2 365.5C319.7 359.3 344.3 366.7 369 366.7C393.7 366.7 418.3 359.3 443 355.7C467.7 352 492.3 352 517 362.8C541.7 373.7 566.3 395.3 591 400.7C615.7 406 640.3 395 664.8 390.5C689.3 386 713.7 388 738.2 385.3C762.7 382.7 787.3 375.3 812 374.3C836.7 373.3 861.3 378.7 886 376C910.7 373.3 935.3 362.7 947.7 357.3L960 352L960 312L947.7 316.5C935.3 321 910.7 330 886 331.8C861.3 333.7 836.7 328.3 812 325.7C787.3 323 762.7 323 738.2 326.7C713.7 330.3 689.3 337.7 664.8 346.7C640.3 355.7 615.7 366.3 591 360.8C566.3 355.3 541.7 333.7 517 318.3C492.3 303 467.7 294 443 292.2C418.3 290.3 393.7 295.7 369 298.3C344.3 301 319.7 301 295.2 311.8C270.7 322.7 246.3 344.3 221.8 345.3C197.3 346.3 172.7 326.7 148 328.5C123.3 330.3 98.7 353.7 74 356.3C49.3 359 24.7 341 12.3 332L0 323Z" fill="#3d287a"></path><path d="M0 374L12.3 386.5C24.7 399 49.3 424 74 425.7C98.7 427.3 123.3 405.7 148 405.7C172.7 405.7 197.3 427.3 221.8 427.3C246.3 427.3 270.7 405.7 295.2 397.7C319.7 389.7 344.3 395.3 369 398.2C393.7 401 418.3 401 443 397.3C467.7 393.7 492.3 386.3 517 391.7C541.7 397 566.3 415 591 421.3C615.7 427.7 640.3 422.3 664.8 420.5C689.3 418.7 713.7 420.3 738.2 418.5C762.7 416.7 787.3 411.3 812 410.5C836.7 409.7 861.3 413.3 886 408C910.7 402.7 935.3 388.3 947.7 381.2L960 374L960 350L947.7 355.3C935.3 360.7 910.7 371.3 886 374C861.3 376.7 836.7 371.3 812 372.3C787.3 373.3 762.7 380.7 738.2 383.3C713.7 386 689.3 384 664.8 388.5C640.3 393 615.7 404 591 398.7C566.3 393.3 541.7 371.7 517 360.8C492.3 350 467.7 350 443 353.7C418.3 357.3 393.7 364.7 369 364.7C344.3 364.7 319.7 357.3 295.2 363.5C270.7 369.7 246.3 389.3 221.8 390.2C197.3 391 172.7 373 148 374C123.3 375 98.7 395 74 395C49.3 395 24.7 375 12.3 365L0 355Z" fill="#34216d"></path><path d="M0 411L12.3 420C24.7 429 49.3 447 74 450.7C98.7 454.3 123.3 443.7 148 443.7C172.7 443.7 197.3 454.3 221.8 453.5C246.3 452.7 270.7 440.3 295.2 436.8C319.7 433.3 344.3 438.7 369 440.3C393.7 442 418.3 440 443 438.2C467.7 436.3 492.3 434.7 517 440.2C541.7 445.7 566.3 458.3 591 463.7C615.7 469 640.3 467 664.8 461.5C689.3 456 713.7 447 738.2 443.5C762.7 440 787.3 442 812 446.5C836.7 451 861.3 458 886 454.3C910.7 450.7 935.3 436.3 947.7 429.2L960 422L960 372L947.7 379.2C935.3 386.3 910.7 400.7 886 406C861.3 411.3 836.7 407.7 812 408.5C787.3 409.3 762.7 414.7 738.2 416.5C713.7 418.3 689.3 416.7 664.8 418.5C640.3 420.3 615.7 425.7 591 419.3C566.3 413 541.7 395 517 389.7C492.3 384.3 467.7 391.7 443 395.3C418.3 399 393.7 399 369 396.2C344.3 393.3 319.7 387.7 295.2 395.7C270.7 403.7 246.3 425.3 221.8 425.3C197.3 425.3 172.7 403.7 148 403.7C123.3 403.7 98.7 425.3 74 423.7C49.3 422 24.7 397 12.3 384.5L0 372Z" fill="#2b1961"></path><path d="M0 460L12.3 468.2C24.7 476.3 49.3 492.7 74 495.3C98.7 498 123.3 487 148 482.5C172.7 478 197.3 480 221.8 480C246.3 480 270.7 478 295.2 475.2C319.7 472.3 344.3 468.7 369 469.7C393.7 470.7 418.3 476.3 443 475.5C467.7 474.7 492.3 467.3 517 470C541.7 472.7 566.3 485.3 591 494.3C615.7 503.3 640.3 508.7 664.8 506.8C689.3 505 713.7 496 738.2 487.8C762.7 479.7 787.3 472.3 812 476.8C836.7 481.3 861.3 497.7 886 498.7C910.7 499.7 935.3 485.3 947.7 478.2L960 471L960 420L947.7 427.2C935.3 434.3 910.7 448.7 886 452.3C861.3 456 836.7 449 812 444.5C787.3 440 762.7 438 738.2 441.5C713.7 445 689.3 454 664.8 459.5C640.3 465 615.7 467 591 461.7C566.3 456.3 541.7 443.7 517 438.2C492.3 432.7 467.7 434.3 443 436.2C418.3 438 393.7 440 369 438.3C344.3 436.7 319.7 431.3 295.2 434.8C270.7 438.3 246.3 450.7 221.8 451.5C197.3 452.3 172.7 441.7 148 441.7C123.3 441.7 98.7 452.3 74 448.7C49.3 445 24.7 427 12.3 418L0 409Z" fill="#231256"></path><path d="M0 541L12.3 541C24.7 541 49.3 541 74 541C98.7 541 123.3 541 148 541C172.7 541 197.3 541 221.8 541C246.3 541 270.7 541 295.2 541C319.7 541 344.3 541 369 541C393.7 541 418.3 541 443 541C467.7 541 492.3 541 517 541C541.7 541 566.3 541 591 541C615.7 541 640.3 541 664.8 541C689.3 541 713.7 541 738.2 541C762.7 541 787.3 541 812 541C836.7 541 861.3 541 886 541C910.7 541 935.3 541 947.7 541L960 541L960 469L947.7 476.2C935.3 483.3 910.7 497.7 886 496.7C861.3 495.7 836.7 479.3 812 474.8C787.3 470.3 762.7 477.7 738.2 485.8C713.7 494 689.3 503 664.8 504.8C640.3 506.7 615.7 501.3 591 492.3C566.3 483.3 541.7 470.7 517 468C492.3 465.3 467.7 472.7 443 473.5C418.3 474.3 393.7 468.7 369 467.7C344.3 466.7 319.7 470.3 295.2 473.2C270.7 476 246.3 478 221.8 478C197.3 478 172.7 476 148 480.5C123.3 485 98.7 496 74 493.3C49.3 490.7 24.7 474.3 12.3 466.2L0 458Z" fill="#1a0b4a"></path></svg>