<svg width="1334" height="671" viewBox="0 0 1334 671" fill="none" xmlns="http://www.w3.org/2000/svg">
<path d="M1237.75 3.36409C1203.41 114.238 1112.6 164.491 1071.49 175.758C1050.47 202.595 1073.06 203.687 1086.98 200.878C1185.36 189.52 1271.76 36.161 1262.36 14.4435C1254.85 -2.93046 1242.82 -0.181935 1237.75 3.36409Z" fill="#F34C18"/>
<path d="M349.407 671C210.325 600.764 77.1974 641.735 28.0189 671C-17.4911 666.303 2.49926 643.425 18.1832 632.573C120.794 547.981 349.407 607.489 361.635 636.843C371.418 660.326 357.559 669.399 349.407 671Z" fill="#37FFB0"/>
<path d="M191.654 222.134C187.553 210.574 197.504 198.911 209.565 201.14L297.274 217.348C309.335 219.577 314.46 234.026 306.499 243.357L248.608 311.211C240.648 320.541 225.572 317.755 221.472 306.196L191.654 222.134Z" fill="#FBC30D"/>
<path d="M1170.98 521.747C1165.35 505.879 1179.01 489.868 1195.57 492.927L1315.97 515.178C1332.53 518.237 1339.57 538.073 1328.64 550.882L1249.17 644.032C1238.24 656.84 1217.54 653.016 1211.91 637.147L1170.98 521.747Z" fill="#343E70"/>
</svg>
