<svg width="210" height="43" viewBox="0 0 210 43" fill="none" xmlns="http://www.w3.org/2000/svg">
<g clip-path="url(#clip0_68_551)">
<path d="M2.95675 34.9597C6.21916 34.9668 9.48894 35.2045 12.739 34.9135C16.2868 34.5978 19.842 34.282 23.38 33.647C25.4639 33.2709 27.5552 32.9729 29.644 32.611C33.3492 31.9689 33.5629 32.5661 34.7561 27.8049C35.1522 26.2261 36.9583 26.066 38.405 26.0482C38.4222 31.5048 38.9047 31.7631 38.9268 37.2196C38.9317 38.3017 38.5799 38.8552 37.827 38.8552C35.1379 38.8552 32.4389 39.0397 29.7572 38.8161C25.2695 38.4436 20.7819 37.915 16.2918 38.2024C12.6185 38.4365 8.95504 38.9368 5.27193 38.8658C2.85096 38.8197 2.48683 38.2379 2.95921 34.9632L2.95675 34.9597Z" fill="#FCC410"/>
<path d="M51.81 25.7897C51.7448 26.7914 51.3916 27.7742 50.8184 28.4378C50.2452 29.1014 49.5606 29.452 48.857 29.5397C48.5799 29.956 48.2322 29.8777 47.5394 29.4176C46.5968 29.2204 45.7084 28.5975 45.1434 27.6928C43.3477 26.3938 41.4178 27.477 39.6221 26.178C38.8505 25.6177 38.0899 25.2546 37.3998 26.3251C37.6932 26.7039 37.9459 27.1421 38.2855 27.4551C42.2137 31.0736 46.2762 32.3192 50.2425 35.8845C51.359 36.8862 52.3262 38.1445 53.7361 38.927C53.8665 35.4119 53.6872 32.0688 53.9996 28.7227C54.2876 25.6582 54.1626 22.5468 54.2197 19.4636C53.565 21.6422 52.7337 23.7613 51.8154 25.7897H51.81Z" fill="#FCC410"/>
<path d="M6.91338 42.3058H6.2646C6.04761 42.0562 5.83279 42.0779 5.61581 42.3058H3.45463C2.30027 41.9239 1.23053 41.3532 0.896368 40.1186C0.607777 39.051 0.445038 37.9118 0.451547 36.8052C0.503624 29.8964 0.0501235 22.994 0.210693 16.083C0.236731 14.9352 0.225882 13.7873 0.204183 12.6395C0.199844 12.3899 0.384282 12.0536 -0.00195312 11.8952V9.09175C0.360413 7.79852 0.269279 6.50311 -0.00195312 5.20988V2.83822C0.911557 -0.160522 2.47602 -0.112785 4.17502 0.0716529C6.01072 0.26911 7.83557 0.453548 9.68429 0.473077C17.7193 0.562041 25.7629 0.167127 33.7914 0.707421C36.9203 0.917897 38.9014 1.49508 38.9036 5.85432C38.9036 7.7204 38.9166 9.58648 38.9231 11.4526C38.9622 11.5263 38.9861 11.6522 39.0403 11.6674C39.1835 11.7043 39.2898 11.6196 39.3441 11.4786C41.2145 10.2092 43.1088 8.97024 44.9532 7.66182C47.9172 5.55705 50.8639 3.42191 53.6651 1.10451C54.7154 0.236562 56.4013 0.833273 56.5793 2.29576C56.8049 4.15533 57.0718 6.04093 56.985 7.9005C56.8852 10.0921 56.7789 12.2923 56.6465 14.4839C56.4187 18.2312 56.5402 21.9981 56.4447 25.7563C56.3384 29.905 56.167 34.0581 56.1475 38.2113C56.141 39.485 55.6527 40.5764 54.2922 41.0646C53.1487 41.4747 52.5694 40.6567 51.8533 40.0621C51.07 39.4112 50.2303 38.8275 49.4252 38.2004C46.6478 36.0305 43.8704 33.8607 41.106 31.6756C40.7979 31.4326 40.4507 31.0529 40.1339 31.1527C39.8214 31.2503 39.8236 31.7711 39.7216 32.1378C39.5285 32.8387 39.535 33.533 39.5329 34.2382C39.5285 35.6769 39.4808 37.1155 39.5415 38.5497C39.6544 41.1774 38.3742 41.9673 35.9331 42.0801C34.6246 42.1409 33.3488 41.7546 32.0121 41.8458C28.4297 42.0888 24.8538 41.5875 21.2648 41.6353C18.4375 41.6722 15.6189 41.9977 12.785 41.8826C10.9298 41.8089 9.08541 42.2428 7.2215 42.0931C7.06744 42.0801 6.94593 42.1322 6.90904 42.3036L6.91338 42.3058ZM50.5471 8.20862C47.2098 10.6193 43.8248 12.9649 40.557 15.4755C39.765 16.083 38.9882 16.8034 37.9944 17.0465C36.5927 17.3893 35.996 16.3195 35.3797 15.3561C35.6249 14.4231 35.1996 13.5313 35.2062 12.6113C35.2213 10.602 35.2105 8.59486 35.2105 6.58557C35.2105 4.57194 34.8807 4.26816 32.8237 4.38316C31.6606 3.94919 30.4542 4.13146 29.2608 4.13146C21.9223 4.12712 14.5838 4.13146 7.24754 4.12278C6.79404 4.12278 6.35356 4.0924 5.88704 3.96438C4.15332 3.49135 3.45246 4.07938 3.4568 5.863C3.46114 7.35804 3.50671 8.84439 3.64124 10.3416C3.86039 12.7914 3.68464 15.2585 3.82785 17.7256C4.01228 20.9305 4.04917 24.1549 4.07087 27.3685C4.0904 30.1936 4.38984 33.0036 4.35729 35.8244C3.94068 37.8272 4.26399 38.183 6.39696 38.2113C9.64524 38.2546 12.8762 37.9487 16.1158 37.8055C20.0757 37.6297 24.0336 37.953 27.9914 38.1809C30.3565 38.3176 32.7347 38.2069 35.1085 38.2047C35.7725 38.2047 36.0828 37.8641 36.0784 37.2044C36.0589 33.8672 36.0459 30.5321 36.0285 27.1949C36.3388 25.8626 36.7815 25.5002 38.1311 25.4829C38.5976 25.4764 39.0663 25.4829 39.5329 25.4829C39.7672 25.7454 39.969 26.0492 40.2402 26.2662C43.3778 28.7745 46.5133 31.2894 49.6813 33.7609C50.5731 34.4552 51.3456 35.3275 52.4717 35.87C52.5759 33.4332 52.4327 31.1158 52.6822 28.7962C52.9144 26.6351 52.808 24.4413 52.8601 22.2671C52.9469 18.5458 53.2529 14.8289 53.1531 11.101C53.14 10.5759 53.2355 10.0487 53.3028 9.52355C53.4482 8.39089 53.3483 7.22784 53.3483 5.863C52.2678 6.76784 51.4107 7.48823 50.5514 8.20862H50.5471Z" fill="#343E70"/>
</g>
<path d="M68.264 29H64.652V8.56H68.264V29ZM85.178 23.484H74.622C75.0886 25.2387 76.4046 26.116 78.57 26.116C79.9513 26.116 80.9966 25.6493 81.706 24.716L84.618 26.396C83.2366 28.3933 81.202 29.392 78.514 29.392C76.1993 29.392 74.342 28.692 72.942 27.292C71.542 25.892 70.842 24.128 70.842 22C70.842 19.9093 71.5326 18.1547 72.914 16.736C74.2766 15.3173 76.05 14.608 78.234 14.608C80.306 14.608 81.9953 15.3173 83.302 16.736C84.646 18.1547 85.318 19.9093 85.318 22C85.318 22.392 85.2713 22.8867 85.178 23.484ZM74.566 20.684H81.706C81.5006 19.7693 81.0806 19.0693 80.446 18.584C79.83 18.0987 79.0926 17.856 78.234 17.856C77.2633 17.856 76.4606 18.108 75.826 18.612C75.1913 19.0973 74.7713 19.788 74.566 20.684ZM95.4373 15V18.472H92.2733V24.296C92.2733 24.7813 92.3947 25.136 92.6373 25.36C92.88 25.584 93.2347 25.7147 93.7013 25.752C94.168 25.7707 94.7467 25.7613 95.4373 25.724V29C92.992 29.28 91.2467 29.056 90.2013 28.328C89.1747 27.5813 88.6613 26.2373 88.6613 24.296V18.472H86.2253V15H88.6613V12.172L92.2733 11.08V15H95.4373ZM101.015 18.976C101.015 19.5733 101.865 20.0867 103.563 20.516C104.161 20.6467 104.702 20.8053 105.187 20.992C105.673 21.16 106.158 21.412 106.643 21.748C107.147 22.0653 107.539 22.4947 107.819 23.036C108.099 23.5773 108.239 24.2027 108.239 24.912C108.239 26.3493 107.698 27.46 106.615 28.244C105.533 29.0093 104.198 29.392 102.611 29.392C99.7366 29.392 97.7766 28.2813 96.7313 26.06L99.8673 24.296C100.297 25.5093 101.211 26.116 102.611 26.116C103.899 26.116 104.543 25.7147 104.543 24.912C104.543 24.3147 103.694 23.8013 101.995 23.372C101.361 23.204 100.819 23.036 100.371 22.868C99.9233 22.7 99.4379 22.4573 98.9153 22.14C98.3926 21.804 97.9913 21.384 97.7113 20.88C97.4499 20.3573 97.3193 19.7507 97.3193 19.06C97.3193 17.6787 97.8233 16.596 98.8313 15.812C99.8579 15.0093 101.127 14.608 102.639 14.608C103.778 14.608 104.814 14.8693 105.747 15.392C106.681 15.896 107.418 16.624 107.959 17.576L104.879 19.256C104.431 18.304 103.685 17.828 102.639 17.828C102.173 17.828 101.781 17.94 101.463 18.164C101.165 18.3693 101.015 18.64 101.015 18.976ZM126.183 14.608C127.788 14.608 129.067 15.1307 130.019 16.176C130.99 17.2213 131.475 18.6213 131.475 20.376V29H127.863V20.628C127.863 19.788 127.658 19.1347 127.247 18.668C126.836 18.2013 126.258 17.968 125.511 17.968C124.69 17.968 124.046 18.2387 123.579 18.78C123.131 19.3213 122.907 20.1053 122.907 21.132V29H119.295V20.628C119.295 19.788 119.09 19.1347 118.679 18.668C118.268 18.2013 117.69 17.968 116.943 17.968C116.14 17.968 115.496 18.248 115.011 18.808C114.544 19.3493 114.311 20.124 114.311 21.132V29H110.699V15H114.311V16.484C115.151 15.2333 116.448 14.608 118.203 14.608C119.939 14.608 121.208 15.28 122.011 16.624C122.926 15.28 124.316 14.608 126.183 14.608ZM148.151 23.484H137.595C138.061 25.2387 139.377 26.116 141.543 26.116C142.924 26.116 143.969 25.6493 144.679 24.716L147.591 26.396C146.209 28.3933 144.175 29.392 141.487 29.392C139.172 29.392 137.315 28.692 135.915 27.292C134.515 25.892 133.815 24.128 133.815 22C133.815 19.9093 134.505 18.1547 135.887 16.736C137.249 15.3173 139.023 14.608 141.207 14.608C143.279 14.608 144.968 15.3173 146.275 16.736C147.619 18.1547 148.291 19.9093 148.291 22C148.291 22.392 148.244 22.8867 148.151 23.484ZM137.539 20.684H144.679C144.473 19.7693 144.053 19.0693 143.419 18.584C142.803 18.0987 142.065 17.856 141.207 17.856C140.236 17.856 139.433 18.108 138.799 18.612C138.164 19.0973 137.744 19.788 137.539 20.684ZM164.311 23.484H153.755C154.221 25.2387 155.537 26.116 157.703 26.116C159.084 26.116 160.129 25.6493 160.839 24.716L163.751 26.396C162.369 28.3933 160.335 29.392 157.647 29.392C155.332 29.392 153.475 28.692 152.075 27.292C150.675 25.892 149.975 24.128 149.975 22C149.975 19.9093 150.665 18.1547 152.047 16.736C153.409 15.3173 155.183 14.608 157.367 14.608C159.439 14.608 161.128 15.3173 162.435 16.736C163.779 18.1547 164.451 19.9093 164.451 22C164.451 22.392 164.404 22.8867 164.311 23.484ZM153.699 20.684H160.839C160.633 19.7693 160.213 19.0693 159.579 18.584C158.963 18.0987 158.225 17.856 157.367 17.856C156.396 17.856 155.593 18.108 154.959 18.612C154.324 19.0973 153.904 19.788 153.699 20.684ZM174.57 15V18.472H171.406V24.296C171.406 24.7813 171.527 25.136 171.77 25.36C172.013 25.584 172.367 25.7147 172.834 25.752C173.301 25.7707 173.879 25.7613 174.57 25.724V29C172.125 29.28 170.379 29.056 169.334 28.328C168.307 27.5813 167.794 26.2373 167.794 24.296V18.472H165.358V15H167.794V12.172L171.406 11.08V15H174.57ZM179.072 29.308C178.568 29.308 178.138 29.1307 177.784 28.776C177.429 28.4213 177.252 27.992 177.252 27.488C177.252 26.984 177.429 26.5547 177.784 26.2C178.138 25.8453 178.568 25.668 179.072 25.668C179.594 25.668 180.024 25.8453 180.36 26.2C180.714 26.5547 180.892 26.984 180.892 27.488C180.892 27.992 180.714 28.4213 180.36 28.776C180.024 29.1307 179.594 29.308 179.072 29.308ZM194.811 17.408V15H197.247V29H194.811V26.592C193.616 28.44 191.852 29.364 189.519 29.364C187.54 29.364 185.87 28.6547 184.507 27.236C183.126 25.7987 182.435 24.0533 182.435 22C182.435 19.9653 183.126 18.2293 184.507 16.792C185.888 15.3547 187.559 14.636 189.519 14.636C191.852 14.636 193.616 15.56 194.811 17.408ZM189.827 27.012C191.246 27.012 192.431 26.536 193.383 25.584C194.335 24.5947 194.811 23.4 194.811 22C194.811 20.5813 194.335 19.396 193.383 18.444C192.431 17.4733 191.246 16.988 189.827 16.988C188.427 16.988 187.251 17.4733 186.299 18.444C185.347 19.396 184.871 20.5813 184.871 22C184.871 23.4 185.347 24.5947 186.299 25.584C187.251 26.536 188.427 27.012 189.827 27.012ZM208.554 15V17.352H204.83V24.94C204.83 25.6307 204.961 26.1253 205.222 26.424C205.502 26.704 205.922 26.8533 206.482 26.872C207.042 26.872 207.733 26.8533 208.554 26.816V29C206.407 29.28 204.839 29.1027 203.85 28.468C202.879 27.8333 202.394 26.6573 202.394 24.94V17.352H199.622V15H202.394V11.808L204.83 11.08V15H208.554Z" fill="#343E70"/>
<defs>
<clipPath id="clip0_68_551">
<rect width="57" height="42.3057" fill="white"/>
</clipPath>
</defs>
</svg>
