<svg width="57" height="44" viewBox="0 0 57 44" fill="none" xmlns="http://www.w3.org/2000/svg">
<g clip-path="url(#clip0_68_524)">
<path d="M2.95675 35.8068C6.21916 35.8139 9.48894 36.0516 12.739 35.7607C16.2868 35.445 19.842 35.1292 23.38 34.4941C25.4639 34.1181 27.5552 33.8201 29.644 33.4582C33.3492 32.816 33.5629 33.4132 34.7561 28.6521C35.1522 27.0733 36.9583 26.9131 38.405 26.8954C38.4222 32.3519 38.9047 32.6103 38.9268 38.0668C38.9317 39.1489 38.5799 39.7023 37.827 39.7023C35.1379 39.7023 32.4389 39.8868 29.7572 39.6633C25.2695 39.2908 20.7819 38.7622 16.2918 39.0495C12.6185 39.2837 8.95504 39.7839 5.27193 39.713C2.85096 39.6669 2.48683 39.085 2.95921 35.8104L2.95675 35.8068Z" fill="#FCC410"/>
<path d="M51.81 26.6369C51.7448 27.6385 51.3916 28.6214 50.8184 29.285C50.2452 29.9486 49.5606 30.2992 48.857 30.3868C48.5799 30.8031 48.2322 30.7249 47.5394 30.2647C46.5968 30.0675 45.7084 29.4446 45.1434 28.54C43.3477 27.241 41.4178 28.3242 39.6221 27.0252C38.8505 26.4649 38.0899 26.1018 37.3998 27.1723C37.6932 27.5511 37.9459 27.9893 38.2855 28.3023C42.2137 31.9208 46.2762 33.1664 50.2425 36.7317C51.359 37.7333 52.3262 38.9917 53.7361 39.7742C53.8665 36.259 53.6872 32.916 53.9996 29.5698C54.2876 26.5054 54.1626 23.394 54.2197 20.3108C53.565 22.4894 52.7337 24.6085 51.8154 26.6369H51.81Z" fill="#FCC410"/>
<path d="M6.91338 43.1529H6.2646C6.04761 42.9034 5.83279 42.9251 5.61581 43.1529H3.45463C2.30027 42.771 1.23053 42.2004 0.896368 40.9657C0.607777 39.8982 0.445038 38.759 0.451547 37.6523C0.503624 30.7435 0.0501235 23.8412 0.210693 16.9302C0.236731 15.7823 0.225882 14.6345 0.204183 13.4866C0.199844 13.2371 0.384282 12.9008 -0.00195312 12.7424V9.93892C0.360413 8.64569 0.269279 7.35028 -0.00195312 6.05704V3.68539C0.911557 0.686646 2.47602 0.734383 4.17502 0.918821C6.01072 1.11628 7.83557 1.30072 9.68429 1.32024C17.7193 1.40921 25.7629 1.01429 33.7914 1.55459C36.9203 1.76507 38.9014 2.34225 38.9036 6.70149C38.9036 8.56757 38.9166 10.4336 38.9231 12.2997C38.9622 12.3735 38.9861 12.4994 39.0403 12.5145C39.1835 12.5514 39.2898 12.4668 39.3441 12.3258C41.2145 11.0564 43.1088 9.81741 44.9532 8.50899C47.9172 6.40422 50.8639 4.26908 53.6651 1.95167C54.7154 1.08373 56.4013 1.68044 56.5793 3.14293C56.8049 5.00249 57.0718 6.8881 56.985 8.74767C56.8852 10.9392 56.7789 13.1395 56.6465 15.331C56.4187 19.0784 56.5402 22.8452 56.4447 26.6034C56.3384 30.7522 56.167 34.9053 56.1475 39.0584C56.141 40.3321 55.6527 41.4236 54.2922 41.9118C53.1487 42.3219 52.5694 41.5038 51.8533 40.9093C51.07 40.2584 50.2303 39.6747 49.4252 39.0476C46.6478 36.8777 43.8704 34.7079 41.106 32.5228C40.7979 32.2798 40.4507 31.9001 40.1339 31.9999C39.8214 32.0975 39.8236 32.6183 39.7216 32.985C39.5285 33.6858 39.535 34.3802 39.5329 35.0854C39.5285 36.524 39.4808 37.9626 39.5415 39.3969C39.6544 42.0246 38.3742 42.8144 35.9331 42.9273C34.6246 42.988 33.3488 42.6018 32.0121 42.6929C28.4297 42.936 24.8538 42.4347 21.2648 42.4825C18.4375 42.5193 15.6189 42.8448 12.785 42.7298C10.9298 42.656 9.08541 43.09 7.2215 42.9403C7.06744 42.9273 6.94593 42.9794 6.90904 43.1508L6.91338 43.1529ZM50.5471 9.05579C47.2098 11.4665 43.8248 13.8121 40.557 16.3226C39.765 16.9302 38.9882 17.6506 37.9944 17.8936C36.5927 18.2365 35.996 17.1667 35.3797 16.2033C35.6249 15.2703 35.1996 14.3785 35.2062 13.4584C35.2213 11.4491 35.2105 9.44202 35.2105 7.43273C35.2105 5.41911 34.8807 5.11533 32.8237 5.23033C31.6606 4.79636 30.4542 4.97863 29.2608 4.97863C21.9223 4.97429 14.5838 4.97863 7.24754 4.96995C6.79404 4.96995 6.35356 4.93957 5.88704 4.81155C4.15332 4.33852 3.45246 4.92655 3.4568 6.71017C3.46114 8.2052 3.50671 9.69156 3.64124 11.1888C3.86039 13.6385 3.68464 16.1057 3.82785 18.5728C4.01228 21.7777 4.04917 25.0021 4.07087 28.2156C4.0904 31.0408 4.38984 33.8508 4.35729 36.6716C3.94068 38.6744 4.26399 39.0302 6.39696 39.0584C9.64524 39.1018 12.8762 38.7959 16.1158 38.6527C20.0757 38.4769 24.0336 38.8002 27.9914 39.028C30.3565 39.1647 32.7347 39.0541 35.1085 39.0519C35.7725 39.0519 36.0828 38.7112 36.0784 38.0516C36.0589 34.7144 36.0459 31.3793 36.0285 28.042C36.3388 26.7098 36.7815 26.3474 38.1311 26.33C38.5976 26.3235 39.0663 26.33 39.5329 26.33C39.7672 26.5926 39.969 26.8964 40.2402 27.1133C43.3778 29.6217 46.5133 32.1366 49.6813 34.608C50.5731 35.3024 51.3456 36.1747 52.4717 36.7171C52.5759 34.2804 52.4327 31.963 52.6822 29.6434C52.9144 27.4822 52.808 25.2885 52.8601 23.1143C52.9469 19.393 53.2529 15.676 53.1531 11.9482C53.14 11.4231 53.2355 10.8958 53.3028 10.3707C53.4482 9.23806 53.3483 8.07501 53.3483 6.71017C52.2678 7.615 51.4107 8.3354 50.5514 9.05579H50.5471Z" fill="#343E70"/>
</g>
<defs>
<clipPath id="clip0_68_524">
<rect width="57" height="42.3057" fill="white" transform="translate(0 0.847168)"/>
</clipPath>
</defs>
</svg>
